HIERARCHY
ROOT Hips
{
	OFFSET 0.000000 0.000000 0.000000
	CHANNELS 6 Xposition Yposition Zposition Zrotation Yrotation Xrotation 
	JOINT LHipJoint
	{
		OFFSET 0.000000 0.000000 0.000000
		CHANNELS 3 Zrotation Yrotation Xrotation
		JOINT LeftUpLeg
		{
			OFFSET 1.363060 -1.794630 0.839290
			CHANNELS 3 Zrotation Yrotation Xrotation
			JOINT LeftLeg
			{
				OFFSET 2.448110 -6.726130 0.000000
				CHANNELS 3 Zrotation Yrotation Xrotation
				JOINT LeftFoot
				{
					OFFSET 2.562200 -7.039590 0.000000
					CHANNELS 3 Zrotation Yrotation Xrotation
					JOINT LeftToeBase
					{
						OFFSET 0.157640 -0.433110 2.322550
						CHANNELS 3 Zrotation Yrotation Xrotation
						End Site
						{
							OFFSET 0.000000 0.000000 0.000000
						}
					}
				}
			}
		}
	}
	JOINT RHipJoint
	{
		OFFSET 0.000000 0.000000 0.000000
		CHANNELS 3 Zrotation Yrotation Xrotation
		JOINT RightUpLeg
		{
			OFFSET -1.305520 -1.794630 0.839290
			CHANNELS 3 Zrotation Yrotation Xrotation
			JOINT RightLeg
			{
				OFFSET -2.542530 -6.985550 0.000000
				CHANNELS 3 Zrotation Yrotation Xrotation
				JOINT RightFoot
				{
					OFFSET -2.568260 -7.056230 0.000000
					CHANNELS 3 Zrotation Yrotation Xrotation
					JOINT RightToeBase
					{
						OFFSET -0.164730 -0.452590 2.363150
						CHANNELS 3 Zrotation Yrotation Xrotation
						End Site
						{
							OFFSET 0.000000 0.000000 0.000000
						}
					}
				}
			}
		}
	}
	JOINT LowerBack
	{
		OFFSET 0.000000 0.000000 0.000000
		CHANNELS 3 Zrotation Yrotation Xrotation
		JOINT Spine
		{
			OFFSET 0.028270 2.035590 -0.193380
			CHANNELS 3 Zrotation Yrotation Xrotation
			JOINT Spine1
			{
				OFFSET 0.056720 2.048850 -0.042750
				CHANNELS 3 Zrotation Yrotation Xrotation
				JOINT Neck
				{
					OFFSET 0.000000 0.000000 0.000000
					CHANNELS 3 Zrotation Yrotation Xrotation
					JOINT Neck1
					{
						OFFSET -0.054170 1.746240 0.172020
						CHANNELS 3 Zrotation Yrotation Xrotation
						JOINT Head
						{
							OFFSET 0.104070 1.761360 -0.123970
							CHANNELS 3 Zrotation Yrotation Xrotation
							End Site
							{
								OFFSET 0.000000 0.000000 0.000000
							}
						}
					}
				}
				JOINT LeftShoulder
				{
					OFFSET 0.000000 0.000000 0.000000
					CHANNELS 3 Zrotation Yrotation Xrotation
					JOINT LeftArm
					{
						OFFSET 3.362410 1.200890 -0.311210
						CHANNELS 3 Zrotation Yrotation Xrotation
						JOINT LeftForeArm
						{
							OFFSET 4.983000 -0.000000 -0.000000
							CHANNELS 3 Zrotation Yrotation Xrotation
							JOINT LeftHand
							{
								OFFSET 3.483560 -0.000000 -0.000000
								CHANNELS 3 Zrotation Yrotation Xrotation
								JOINT LeftFingerBase
								{
									OFFSET 0.000000 0.000000 0.000000
									CHANNELS 3 Zrotation Yrotation Xrotation
									JOINT LeftHandIndex1
									{
										OFFSET 0.715260 -0.000000 -0.000000
										CHANNELS 3 Zrotation Yrotation Xrotation
										End Site
										{
											OFFSET 0.000000 0.000000 0.000000
										}
									}
								}
								JOINT LThumb
								{
									OFFSET 0.000000 0.000000 0.000000
									CHANNELS 3 Zrotation Yrotation Xrotation
									End Site
									{
										OFFSET 0.000000 0.000000 0.000000
									}
								}
							}
						}
					}
				}
				JOINT RightShoulder
				{
					OFFSET 0.000000 0.000000 0.000000
					CHANNELS 3 Zrotation Yrotation Xrotation
					JOINT RightArm
					{
						OFFSET -3.136600 1.374050 -0.404650
						CHANNELS 3 Zrotation Yrotation Xrotation
						JOINT RightForeArm
						{
							OFFSET -5.241900 -0.000000 -0.000000
							CHANNELS 3 Zrotation Yrotation Xrotation
							JOINT RightHand
							{
								OFFSET -3.444170 -0.000000 -0.000000
								CHANNELS 3 Zrotation Yrotation Xrotation
								JOINT RightFingerBase
								{
									OFFSET 0.000000 0.000000 0.000000
									CHANNELS 3 Zrotation Yrotation Xrotation
									JOINT RightHandIndex1
									{
										OFFSET -0.622530 -0.000000 -0.000000
										CHANNELS 3 Zrotation Yrotation Xrotation
										End Site
										{
											OFFSET 0.000000 0.000000 0.000000
										}
									}
								}
								JOINT RThumb
								{
									OFFSET 0.000000 0.000000 0.000000
									CHANNELS 3 Zrotation Yrotation Xrotation
									End Site
									{
										OFFSET 0.000000 0.000000 0.000000
									}
								}
							}
						}
					}
				}
			}
		}
	}
}
MOTION
Frames: 8
Frame Time: 0.008333
2.009516 16.771841 3.153933 12.342604 -37.803129 22.796960 -6.559142 0.155591 8.750519 -0.991923 -27.429915 -48.699729 -2.161196 -1.068824 12.303178 0.254635 3.765056 6.391501 1.723700 -0.000001 -56.027400 13.775884 0.372352 -4.614904 -5.674469 -37.918487 -12.911664 2.113153 0.720548 -4.913917 -2.214918 -23.895555 15.843457 -11.977200 -0.000001 -71.926400 -12.496394 1.283259 -0.934151 -2.024918 2.221921 -3.701641 0.783037 2.153394 -3.574229 -6.612427 0.739289 -3.112043 0.469217 -0.034779 1.065351 0.000000 0.000000 0.000000 0.719612 0.524723 -6.655568 -96.763454 -52.407868 41.795383 178.024637 -67.517901 179.753966 13.509633 -16.044743 -2.068911 -0.058534 1.151820 -0.000000 0.000000 0.000000 0.000000 0.000000 0.000000 0.000000 -17.249162 8.339534 6.236919 -17.038493 22.102065 -50.452385 0.313808 2.483373 -0.046819 -12.290933 12.436949 -1.476293 0.469946 -0.708879 0.000000 0.000000 0.000000 0.000000 0.000000 0.000000 0.000000 
2.011433 16.771442 3.157160 12.184395 -38.086279 22.891642 -6.580625 0.170983 8.727996 -0.964328 -27.216161 -48.776532 -2.134320 -1.058990 12.502150 0.276958 3.824450 6.203889 1.721800 0.000000 -56.062400 13.773797 0.343631 -4.534713 -5.561335 -37.587429 -12.926140 2.085698 0.743653 -5.070500 -2.291768 -23.950287 15.933006 -11.978300 0.000001 -71.937900 -12.539576 1.213046 -0.984901 -2.014205 2.158097 -3.696143 0.846462 2.086115 -3.534328 -6.598721 0.540333 -3.118724 0.580730 -0.027421 1.063630 0.000000 0.000000 0.000000 0.672017 0.290875 -6.642978 -96.628936 -52.347420 41.559377 178.046653 -67.603999 179.754808 13.505416 -16.019870 -2.065087 -0.059743 1.149829 -0.000000 0.000000 0.000000 0.000000 0.000000 0.000000 0.000000 -17.852337 8.233720 6.241595 -15.864641 22.904403 -52.767732 0.151239 4.534236 -0.052315 -11.655908 12.054696 -1.359101 0.436557 -0.722549 -0.000000 0.000000 0.000000 0.000000 0.000000 0.000000 0.000000 
2.014586 16.773723 3.160247 12.001082 -38.423551 22.973522 -6.612248 0.188808 8.700486 -0.944307 -26.956475 -48.810752 -2.105470 -1.048198 12.686343 0.301107 3.899378 6.039858 1.725200 0.000000 -56.110501 13.766485 0.309095 -4.456385 -5.436067 -37.282647 -12.938507 2.065993 0.768084 -5.259266 -2.376927 -23.951386 16.102704 -11.960300 -0.000000 -71.950400 -12.566208 1.140069 -1.038359 -2.009446 2.089314 -3.694635 0.875598 2.014860 -3.504141 -6.516023 0.353463 -3.106292 0.670023 -0.021903 1.067220 0.000000 0.000000 0.000000 0.638889 0.064287 -6.619782 -96.468326 -52.306917 41.291270 178.069796 -67.691511 179.755290 13.520749 -15.982849 -2.063155 -0.061966 1.149026 -0.000000 0.000000 0.000000 0.000000 0.000000 0.000000 0.000000 -18.308891 8.121309 6.232629 -14.729675 23.761151 -54.337822 0.038664 6.820465 -0.057550 -11.149773 11.542561 -1.247395 0.408715 -0.731398 -0.000000 0.000000 0.000000 0.000000 0.000000 0.000000 0.000000 
2.019126 16.778360 3.163212 11.789586 -38.809113 23.047658 -6.652998 0.208105 8.667932 -0.926222 -26.656851 -48.808436 -2.073938 -1.036565 12.859134 0.327463 3.990760 5.894624 1.733600 -0.000000 -56.170300 13.753368 0.270234 -4.374507 -5.296853 -36.971809 -12.961399 2.047572 0.791426 -5.445892 -2.459992 -23.953887 16.330131 -11.963200 0.000000 -72.023500 -12.578369 1.064088 -1.097172 -2.009132 2.015799 -3.699080 0.878096 1.939819 -3.489639 -6.371787 0.211735 -3.069774 0.738904 -0.018204 1.077697 0.000000 0.000000 0.000000 0.628126 -0.161877 -6.585610 -96.291092 -52.273638 40.986334 178.091191 -67.773184 179.755324 13.556392 -15.936198 -2.063315 -0.064928 1.149383 -0.000000 0.000000 0.000000 0.000000 0.000000 0.000000 0.000000 -18.629455 8.031556 6.205976 -13.621974 24.633069 -55.268616 -0.035365 9.326892 -0.062674 -10.778933 10.988512 -1.150673 0.385859 -0.737874 -0.000000 0.000000 0.000000 0.000000 0.000000 0.000000 0.000000 
2.024938 16.785007 3.166101 11.555279 -39.237072 23.106877 -6.698888 0.230498 8.634432 -0.906838 -26.333222 -48.765382 -2.039643 -1.024817 13.018578 0.357475 4.107284 5.763387 1.748900 0.000001 -56.235700 13.738020 0.226497 -4.297458 -5.151571 -36.700324 -12.972826 2.037893 0.816646 -5.666917 -2.551307 -23.900324 16.622027 -11.939400 0.000000 -72.069100 -12.586375 0.984318 -1.157566 -2.017889 1.936980 -3.710443 0.845420 1.860884 -3.496109 -6.136081 0.135309 -3.002426 0.776774 -0.017144 1.096835 0.000000 0.000000 0.000000 0.669201 -0.396355 -6.542376 -96.112944 -52.233739 40.649248 178.110144 -67.852029 179.754878 13.608246 -15.884448 -2.065466 -0.068415 1.151164 -0.000000 0.000000 0.000000 0.000000 0.000000 0.000000 0.000000 -18.728042 7.972736 6.167163 -12.650438 25.485346 -55.481221 -0.065059 12.016184 -0.068319 -10.634407 10.402969 -1.077536 0.370799 -0.741325 -0.000000 0.000000 0.000000 0.000000 0.000000 0.000000 0.000000 
2.032083 16.793313 3.168836 11.298553 -39.703857 23.157210 -6.749904 0.253774 8.597884 -0.880109 -25.990298 -48.689291 -2.001718 -1.012906 13.169649 0.391401 4.248327 5.640688 1.770400 0.000000 -56.305200 13.719061 0.180252 -4.217051 -4.999776 -36.415991 -12.987447 2.026928 0.840779 -5.881021 -2.640473 -23.864917 16.949914 -11.940700 -0.000000 -72.163500 -12.590320 0.900869 -1.221112 -2.030891 1.853659 -3.728487 0.795088 1.778270 -3.523114 -5.841844 0.118465 -2.907129 0.794922 -0.017933 1.124041 0.000000 0.000000 0.000000 0.752928 -0.636336 -6.491720 -95.942341 -52.183243 40.281380 178.123725 -67.920373 179.753938 13.674930 -15.830367 -2.069813 -0.071995 1.153985 -0.000000 0.000000 0.000000 0.000000 0.000000 0.000000 0.000000 -18.682076 7.944339 6.107600 -11.743697 26.336280 -55.322456 -0.080812 14.850488 -0.074529 -10.665609 9.907572 -1.031691 0.360245 -0.745226 -0.000000 0.000000 0.000000 0.000000 0.000000 0.000000 0.000000 
2.040511 16.802970 3.171328 11.024138 -40.206706 23.194782 -6.804241 0.277559 8.559142 -0.842987 -25.639094 -48.579132 -1.959789 -1.001141 13.313024 0.430197 4.418758 5.522093 1.798800 -0.000001 -56.375900 13.697824 0.132099 -4.136664 -4.848064 -36.130827 -12.992500 2.016411 0.865164 -6.103851 -2.733166 -23.828647 17.305928 -11.946500 -0.000000 -72.241301 -12.595080 0.814124 -1.283786 -2.047700 1.766569 -3.752317 0.732009 1.692553 -3.570787 -5.496688 0.148675 -2.784814 0.796418 -0.020352 1.159056 0.000000 0.000000 0.000000 0.882787 -0.879593 -6.436218 -95.789132 -52.119675 39.889646 178.130634 -67.976920 179.752522 13.751998 -15.779461 -2.076056 -0.075311 1.157726 -0.000000 0.000000 0.000000 0.000000 0.000000 0.000000 0.000000 -18.507214 7.934870 6.023117 -10.895584 27.207851 -54.951297 -0.095614 17.790434 -0.081448 -10.863062 9.552905 -1.014936 0.353016 -0.750557 0.000000 0.000000 0.000000 0.000000 0.000000 0.000000 0.000000 
2.050120 16.813651 3.173426 10.740101 -40.744975 23.214940 -6.861185 0.300786 8.517956 -0.793868 -25.288879 -48.434508 -1.913492 -0.989571 13.450536 0.474689 4.622527 5.403923 1.834600 -0.000001 -56.446600 13.674811 0.083335 -4.059002 -4.704075 -35.851590 -12.977141 2.006579 0.890748 -6.350236 -2.835493 -23.782790 17.691172 -11.945200 -0.000000 -72.298100 -12.601742 0.724820 -1.341077 -2.065280 1.676732 -3.780459 0.667599 1.604396 -3.638270 -5.127385 0.208069 -2.638462 0.791327 -0.023685 1.201133 0.000000 0.000000 0.000000 1.044594 -1.121052 -6.375888 -95.649729 -52.048870 39.476197 178.129893 -68.019586 179.750702 13.837109 -15.729010 -2.083502 -0.078125 1.161897 -0.000000 0.000000 0.000000 0.000000 0.000000 0.000000 0.000000 -18.274109 7.934256 5.902281 -10.022469 28.129213 -54.535726 -0.126290 20.829073 -0.089267 -11.211746 9.380305 -1.029375 0.347559 -0.758453 0.000000 0.000000 0.000000 0.000000 0.000000 0.000000 0.000000 
